<?xml version="1.0" encoding="utf-8"?>
<!-- Generator: Adobe Illustrator 21.0.0, SVG Export Plug-In . SVG Version: 6.00 Build 0)  -->
<svg version="1.1" id="Ebene_1" xmlns="http://www.w3.org/2000/svg" xmlns:xlink="http://www.w3.org/1999/xlink" x="0px" y="0px"
	 viewBox="0 0 295.7 58.7" style="enable-background:new 0 0 295.7 58.7;" xml:space="preserve">
<style type="text/css">
	.st0{fill:#D4021D;}
	.st1{fill:#008EBD;}
	.st2{fill:#FFFFFF;}
	.st3{fill:#90B9D7;}
</style>
<g id="Ebene_1_1_">
	<path class="st0" d="M15.5,5c-3.6,1.6-6.6,3.6-9,5.7c-5.6,4.9-7.2,10.9-6.2,18.6c1,6.2,3.6,11.6,7.5,16.2c0,0,0.1,0.1,0.1,0
		L14.4,11C14.8,9.2,15.5,5,15.5,5 M41.6,10.7c0-3.4-1.4-6.9-5.4-6.9c-4.7,0-9,5.3-10.5,13.6l-1.7,9c1.4,1.3,3.3,2.1,5.7,2.1
		C36.4,28.5,41.6,19,41.6,10.7 M54.5,7C54.4,6.8,54.4,6.9,54.5,7c0,0.8,0.1,1.8,0.1,2.7c0,14.7-9.8,28.2-24.5,28.2
		c-3.5,0-6.4-0.9-7.9-1.7H22L18.7,54l0.1,0.1c3.8,2,8,3.5,12.5,4.3c8,1.1,13.5-0.7,18-5.9c4.5-5.1,7.8-13.4,9.4-23.4
		C59.9,19.3,58.8,12,54.5,7"/>
	<path class="st1" d="M145.9,22l5.2,17.5c0.1,0.2,0.2,0.5,0.2,0.7c0,0.3-0.1,0.5-0.3,0.8c-0.3,0.8-0.9,1.6-1.6,2.2
		c-0.8,0.7-1.6,1.3-2.5,1.6l1.5,4.4c0.8-0.2,2.7-1.1,4.3-3c2-2.4,3.3-6.1,4.2-9.7l3.9-14.6h-4.9l-1.6,9.9c-0.2,1-0.3,2.1-0.5,3.1
		h-0.1c-0.2-1-0.3-2-0.5-3.2l-1.9-9.8h-5.4V22z M134.8,18.6V22h-2.2v3.6h2.2v8.9c0,3,0.6,4.4,1.6,5.4c0.9,0.9,2.2,1.2,3.6,1.2
		c1.4,0,2.4-0.2,3.1-0.3v-3.9c-0.4,0.1-0.8,0.1-1.3,0.1c-1,0-1.9-0.5-1.9-2.7v-8.6h3.7V22h-3.7v-5L134.8,18.6z M116.2,40.9h5.1V29.3
		c0-0.7,0.1-1.4,0.3-1.7c0.3-1.1,1-1.7,1.9-1.7c1.5,0,1.9,1.5,1.9,3.1v11.8h5.1V28.7c0-4.2-1.4-7.1-5-7.1c-2,0-3.6,1-4.6,2.5h-0.1
		l-0.2-2.2h-4.4c0,1.8,0.2,3.6,0.2,5.7v13.3H116.2z M104.3,29.6c0-1.9,0.7-4.3,2.4-4.3c1.5,0,2.1,1.9,2.1,4.3
		C108.8,29.6,104.3,29.6,104.3,29.6z M113.2,33.2c0.1-0.5,0.2-1.3,0.2-2.6c0-5.7-2.4-8.9-6.4-8.9c-4.3,0-7.6,3.8-7.6,10.1
		c0,5.9,2.8,9.3,8,9.3c1.9,0,3.9-0.3,5.2-0.8l-0.7-3.6c-0.9,0.3-2.2,0.6-3.6,0.6c-2.2,0-3.9-1.1-4-4h8.9V33.2z M91.3,40.9h5.1V14.1
		h-5.1V40.9z M79.1,28.9c0-0.5,0-1,0.2-1.4c0.2-0.9,0.9-1.6,1.7-1.6c1.5,0,2.4,1.9,2.4,5.5c0,3-0.6,5.6-2.4,5.6
		c-0.6,0-1.2-0.3-1.6-1.5c-0.2-0.4-0.3-1-0.3-1.6C79.1,33.9,79.1,28.9,79.1,28.9z M74,48.3h5.1v-9h0.1c0.5,0.9,1.6,1.9,3.1,1.9
		c3.2,0,6.1-3.1,6.1-9.8c0-5.2-1.7-9.7-5.9-9.7c-1.7,0-3.2,0.9-3.9,2.5h-0.1L78.3,22h-4.4c0.1,1.8,0.2,3.7,0.2,6L74,48.3L74,48.3z"
		/>
	<path class="st2" d="M41.6,10.7c0,8.3-5.2,17.8-11.8,17.8c-2.4,0-4.3-0.8-5.7-2.1l1.6-9.1C27.1,9,31.4,3.8,36.1,3.8
		C40.2,3.8,41.6,7.3,41.6,10.7 M54.6,9.7c0-1-0.1-1.9-0.2-2.8c-0.1-0.1-0.2-0.3-0.3-0.4C49.6,1.4,42-0.9,31.5,0.3
		c-5.9,1-11.4,2.6-16.1,4.7c-0.3,2.1-0.7,4.2-1,6L7.9,45.5c2.9,3.4,6.6,6.3,10.8,8.5l3.4-17.8h0.2c1.5,0.9,4.4,1.7,7.9,1.7
		C44.8,37.9,54.6,24.4,54.6,9.7"/>
</g>
<g id="text_vector">
	<g>
		<path class="st3" d="M164,14.9h3v12.5h0.1c0.6-1.1,1.1-2.1,1.6-3.2l4.9-9.3h3.3l-6.4,11.2l6.6,15.1h-3.2l-5.4-12.7L167,31v10.1h-3
			V14.9z"/>
		<path class="st3" d="M179.5,27.2c0-2.2-0.1-3.4-0.2-4.9h2.6l0.2,2.3h0.1c0.8-1.5,2.3-2.6,4.3-2.6c2.6,0,4.6,1.9,4.6,6.5v12.7h-3
			V29c0-2.2-0.4-4.5-2.6-4.5c-1.2,0-2.5,1.1-2.8,3.1c-0.1,0.5-0.1,1.1-0.1,1.7v11.9h-3v-14H179.5z"/>
		<path class="st3" d="M206.9,31.7c0,7.3-3.4,9.8-6.3,9.8c-3.4,0-6.1-3.1-6.1-9.7c0-6.9,3.1-9.8,6.3-9.8
			C204.2,22,206.9,25.1,206.9,31.7z M197.5,31.7c0,3.1,0.5,7.4,3.3,7.4c2.6,0,3.1-4.4,3.1-7.4c0-2.9-0.5-7.3-3.2-7.3
			C198,24.4,197.5,28.8,197.5,31.7z"/>
		<path class="st3" d="M211.5,22.3l1.8,9.2c0.4,2,0.8,4.1,1,6h0.2c0.3-2,0.7-4.1,1.2-5.9l2.2-9.3h2.3l2.1,9c0.5,2.1,0.9,4.1,1.2,6.2
			h0.2c0.2-2,0.6-3.9,1-6.1l1.8-9.2h3l-4.8,18.9h-2.5L220,32c-0.5-1.8-0.7-3.5-1.1-5.7h-0.1c-0.3,2.2-0.7,4-1.1,5.8l-2.3,9H213
			l-4.6-18.9h3.1V22.3z"/>
		<path class="st3" d="M232,14.2h3v27h-3V14.2z"/>
		<path class="st3" d="M241.6,32c0,5.8,2.3,7,4.5,7c1.3,0,2.4-0.3,3.1-0.7l0.5,2.2c-1.1,0.6-2.7,0.9-4.1,0.9c-4.5,0-6.9-3.7-6.9-9.5
			c0-6.1,2.6-9.9,6.4-9.9c3.9,0,5.4,4.1,5.4,8.3c0,0.7,0,1.2,0,1.7C250.5,32,241.6,32,241.6,32z M247.5,29.8
			c0.1-3.8-1.4-5.5-2.8-5.5c-2,0-3,2.9-3.1,5.5H247.5z"/>
		<path class="st3" d="M265,14.2v22.5c0,1.3,0.1,3.4,0.2,4.5h-2.6l-0.2-2.4h-0.1c-0.6,1.4-2,2.7-3.9,2.7c-3.2,0-5.5-3.5-5.5-9.7
			c0-6.7,2.8-9.8,5.7-9.8c1.4,0,2.7,0.7,3.4,2.3h0.1V14.2H265z M262,29.5c0-0.4,0-0.8,0-1.2c-0.2-2-1.4-3.7-2.8-3.7
			c-2.5,0-3.4,3.5-3.4,7.3c0,4,1,7.2,3.2,7.2c0.9,0,2.2-0.5,2.9-3.2c0.1-0.4,0.1-0.8,0.1-1.2L262,29.5L262,29.5z"/>
		<path class="st3" d="M280.7,22.3c0,1.3-0.2,3-0.2,5.9v10.6c0,5-0.6,6.8-1.9,8.2c-1.1,1.3-2.9,2-5,2c-1.6,0-3.2-0.4-4.1-0.9
			l0.7-2.3c0.7,0.4,2,0.8,3.5,0.8c2.4,0,3.9-1.5,3.9-5.8v-1.9h-0.1c-0.7,1.5-2,2.3-3.6,2.3c-3.4,0-5.5-3.8-5.5-9.3
			c0-6.9,3.2-9.8,5.9-9.8c2,0,3,1.3,3.5,2.5h0.1l0.2-2.1h2.6V22.3z M277.6,28.8c0-0.5,0-1-0.2-1.4c-0.4-1.3-1-2.9-2.7-2.9
			c-2.2,0-3.4,2.9-3.4,7.1c0,4.8,1.5,7,3.4,7c0.9,0,2.1-0.4,2.7-2.7c0.2-0.6,0.2-1.2,0.2-1.7V28.8z"/>
		<path class="st3" d="M286.9,32c0,5.8,2.3,7,4.5,7c1.3,0,2.4-0.3,3.1-0.7l0.5,2.2c-1.1,0.6-2.7,0.9-4.1,0.9c-4.5,0-6.9-3.7-6.9-9.5
			c0-6.1,2.6-9.9,6.4-9.9c3.9,0,5.4,4.1,5.4,8.3c0,0.7,0,1.2,0,1.7C295.8,32,286.9,32,286.9,32z M292.8,29.8
			c0.1-3.8-1.4-5.5-2.8-5.5c-2,0-3,2.9-3.1,5.5H292.8z"/>
	</g>
</g>
</svg>
